<?xml version="1.0" encoding="UTF-8" standalone="no"?>
<svg
   xmlns:dc="http://purl.org/dc/elements/1.1/"
   xmlns:cc="http://creativecommons.org/ns#"
   xmlns:rdf="http://www.w3.org/1999/02/22-rdf-syntax-ns#"
   xmlns:svg="http://www.w3.org/2000/svg"
   xmlns="http://www.w3.org/2000/svg"
   viewBox="0 0 319.48001 86.373337"
   height="86.373337"
   width="319.48001"
   xml:space="preserve"
   id="svg2"
   version="1.1"><metadata
     id="metadata8"><rdf:RDF><cc:Work
         rdf:about=""><dc:format>image/svg+xml</dc:format><dc:type
           rdf:resource="http://purl.org/dc/dcmitype/StillImage" /></cc:Work></rdf:RDF></metadata><defs
     id="defs6" /><g
     transform="matrix(1.3333333,0,0,-1.3333333,0,86.373333)"
     id="g10"><g
       transform="scale(0.1)"
       id="g12"><path
         id="path14"
         style="fill:#21b050;fill-opacity:1;fill-rule:nonzero;stroke:none"
         d="m 911.004,439.738 c -21.586,16.844 -51.707,25.274 -90.391,25.274 -26.218,0 -51.722,-4.59 -76.476,-13.762 -24.77,-9.16 -51.324,-22.324 -79.664,-39.512 l 11.371,42.61 H 601.199 L 498.676,70.3047 h 74.64 L 649.84,356.934 c 23.09,13.359 46.781,24.863 71.058,34.492 24.282,9.629 46.52,14.445 66.684,14.445 28.656,0 48.496,-4.875 59.512,-14.609 11.015,-9.746 16.523,-24.25 16.523,-43.496 0,-8.957 -0.855,-17.961 -2.566,-27.004 -1.715,-9.043 -4.149,-19.649 -7.301,-31.797 L 795.691,70.3047 h 74.45 L 936.664,319.57 c 2.102,7.102 3.75,15.352 4.938,24.758 1.195,9.395 1.785,16.844 1.785,22.352 0,31.855 -10.793,56.211 -32.383,73.058" /><path
         id="path16"
         style="fill:#21b050;fill-opacity:1;fill-rule:nonzero;stroke:none"
         d="m 1188.27,164.883 c -21.72,-13.074 -45.08,-24.258 -70.1,-33.543 -25.02,-9.297 -49.58,-13.938 -73.67,-13.938 -27.28,0 -47.402,4.348 -60.363,13.067 -12.985,8.711 -19.465,21.32 -19.465,37.824 0,19.258 5.562,35.352 16.695,48.309 11.125,12.949 27.423,23.203 48.893,30.761 20.68,7.571 46.85,13.36 78.52,17.364 31.67,4.003 67.91,6.711 108.72,8.086 z m 83.21,276.41 c -27.56,14.891 -68.89,22.34 -123.99,22.34 -26.77,0 -54.72,-2.188 -83.86,-6.531 -29.15,-4.356 -51.27,-8.254 -66.368,-11.692 l -14.703,-64.637 h 3.976 c 18.035,6.18 41.495,12.43 70.395,18.739 28.91,6.301 54.63,9.453 77.17,9.453 14.85,0 28.44,-0.742 40.78,-2.246 12.33,-1.485 23.13,-4.297 32.41,-8.418 9.28,-4.129 16.44,-9.637 21.48,-16.524 5.03,-6.875 7.56,-15.82 7.56,-26.836 0,-5.039 -0.55,-9.91 -1.66,-14.609 -1.12,-4.687 -2.5,-10.234 -4.16,-16.641 -54.05,-1.367 -102.2,-4.98 -144.45,-10.82 -42.25,-5.848 -78.35,-15.301 -108.283,-28.367 -30.468,-13.293 -53.449,-30.43 -68.949,-51.399 -15.504,-20.976 -23.242,-46.707 -23.242,-77.195 0,-28.652 10.984,-51.855 32.984,-69.6287 22,-17.754 50.614,-26.6407 85.85,-26.6407 21.73,0 40.94,1.7774 57.64,5.3321 16.68,3.5546 31.79,7.9687 45.29,13.2421 12.72,4.8047 25.25,10.586 37.57,17.3633 12.32,6.7579 22.05,11.9729 29.22,15.6249 l -10.79,-40.8983 h 74.14 l 69.38,260.6133 c 1.57,6.191 2.96,12.773 4.16,19.766 1.18,6.992 1.78,13.586 1.78,19.765 0,32.324 -13.78,55.938 -41.33,70.844" /><path
         id="path18"
         style="fill:#21b050;fill-opacity:1;fill-rule:nonzero;stroke:none"
         d="m 1682.1,439.738 c -21.59,16.844 -51.7,25.274 -90.39,25.274 -26.22,0 -51.72,-4.59 -76.48,-13.762 -24.76,-9.16 -51.32,-22.324 -79.66,-39.512 l 11.37,42.61 H 1372.3 L 1269.77,70.3047 h 74.64 l 76.52,286.6293 c 23.09,13.359 46.79,24.863 71.07,34.492 24.27,9.629 46.51,14.445 66.68,14.445 28.66,0 48.49,-4.875 59.51,-14.609 11.01,-9.746 16.52,-24.25 16.52,-43.496 0,-8.957 -0.85,-17.961 -2.57,-27.004 -1.71,-9.043 -4.14,-19.649 -7.29,-31.797 L 1566.79,70.3047 h 74.45 l 66.52,249.2653 c 2.1,7.102 3.75,15.352 4.94,24.758 1.19,9.395 1.79,16.844 1.79,22.352 0,31.855 -10.8,56.211 -32.39,73.058" /><path
         id="path20"
         style="fill:#21b050;fill-opacity:1;fill-rule:nonzero;stroke:none"
         d="m 2027.99,320.949 c -0.54,-4.601 -1.46,-10.207 -2.79,-16.847 h -253.54 c 10.33,33.007 30.05,59.589 59.21,79.765 29.13,20.156 62.52,30.254 100.15,30.254 34.17,0 59.01,-6.875 74.51,-20.625 15.51,-13.758 23.24,-32.891 23.24,-57.422 0,-5.508 -0.26,-10.547 -0.78,-15.125 z m 34.21,111.571 c -26.74,21.66 -65.24,32.492 -115.54,32.492 -75.71,0 -139.23,-25.168 -190.58,-75.469 -51.36,-50.324 -77.02,-110.664 -77.02,-181.027 0,-48.133 17.46,-84.696 52.4,-109.6762 34.93,-24.9804 83.11,-37.4804 144.51,-37.4804 19.05,0 34.93,0.9179 47.64,2.7539 12.7,1.8359 27.26,4.4726 43.67,7.9101 16.41,3.4375 29.9,6.875 40.49,10.3125 10.58,3.4375 22.49,7.2266 35.73,11.3477 l 16.28,69.7934 h -4.37 c -20.93,-12.372 -46.84,-23.504 -77.7,-33.348 -30.86,-9.863 -60.87,-14.785 -90.01,-14.785 -41.87,0 -74.19,9.219 -96.96,27.676 -22.81,18.445 -34.19,43.835 -34.19,76.16 0,5.5 0.33,11.457 0.99,17.871 0.67,6.418 1.79,12.949 3.38,19.601 H 2088 c 5.03,19.715 8.67,37.02 10.93,51.922 2.25,14.895 3.38,25.781 3.38,32.656 0,39.2 -13.37,69.629 -40.11,91.29" /><path
         id="path22"
         style="fill:#21b050;fill-opacity:1;fill-rule:nonzero;stroke:none"
         d="m 2180.84,224.805 47.5,177.285 h 154.27 l 13.52,52.258 h -153.68 l 29.79,110.371 h -75.06 l -29.53,-110.371 h -80.8 l -13.61,-52.258 h 80.42 l -55.19,-206.289 c -2.13,-9.168 -3.78,-17.371 -4.97,-24.59 -1.19,-7.215 -1.79,-14.5 -1.79,-21.824 0,-30.039 10,-51.9925 30.01,-65.8597 19.99,-13.8476 48.28,-20.7812 84.85,-20.7812 12.97,0 27.88,1.0156 44.7,3.0664 16.83,2.0508 32.65,4.668 47.49,7.8711 l 13.92,55.4104 h -3.96 c -5.31,-1.836 -15.43,-4.356 -30.4,-7.559 -14.95,-3.222 -27.85,-4.824 -38.72,-4.824 -26.45,0 -44.6,4.082 -54.38,12.227 -9.81,8.144 -14.71,20.593 -14.71,37.343 0,6.887 1.07,16.121 3.19,27.703 2.11,11.582 4.49,21.856 7.14,30.821" /><path
         id="path24"
         style="fill:#1162a5;fill-opacity:1;fill-rule:nonzero;stroke:none"
         d="M 217.398,644.391 101.703,255.582 C 88.1172,209.906 85.375,172.012 93.4844,141.895 105.48,96.4336 141.805,73.957 202.461,74.4648 c 72.723,0.6094 129.547,25.7192 170.469,75.3242 22.074,26.953 39.894,63.121 53.461,108.516 l 115.691,388.808 87.102,0.731 L 523.789,294.57 C 500.941,217.211 472.828,157.602 439.453,115.75 378.203,39.4883 294.113,0.910156 187.18,0.015625 80.2461,-0.878906 19.0273,36.4805 3.52344,112.094 -5.07031,153.598 2.05859,213.031 24.9063,290.391 l 105.3947,353.273 87.097,0.727" /></g></g></svg>